<svg width="94" height="94" viewBox="0 0 94 94" fill="none" xmlns="http://www.w3.org/2000/svg">
<g id="mdi:location">
<path id="Vector" d="M47 45.0417C44.4031 45.0417 41.9125 44.0101 40.0762 42.1738C38.24 40.3375 37.2083 37.8469 37.2083 35.25C37.2083 32.6531 38.24 30.1625 40.0762 28.3262C41.9125 26.49 44.4031 25.4583 47 25.4583C49.5969 25.4583 52.0875 26.49 53.9238 28.3262C55.7601 30.1625 56.7917 32.6531 56.7917 35.25C56.7917 36.5359 56.5384 37.8091 56.0463 38.9971C55.5542 40.1851 54.833 41.2645 53.9238 42.1738C53.0145 43.083 51.9351 43.8042 50.7471 44.2963C49.5591 44.7884 48.2859 45.0417 47 45.0417ZM47 7.83334C39.7287 7.83334 32.7551 10.7219 27.6135 15.8635C22.4719 21.0051 19.5833 27.9787 19.5833 35.25C19.5833 55.8125 47 86.1667 47 86.1667C47 86.1667 74.4167 55.8125 74.4167 35.25C74.4167 27.9787 71.5281 21.0051 66.3865 15.8635C61.2449 10.7219 54.2714 7.83334 47 7.83334Z" fill="#F01055"/>
</g>
</svg>
