<svg width="94" height="94" viewBox="0 0 94 94" fill="none" xmlns="http://www.w3.org/2000/svg">
<g id="fluent:temperature-32-regular">
<path id="Vector" d="M47 14.6875C44.6628 14.6875 42.4213 15.616 40.7686 17.2686C39.116 18.9213 38.1875 21.1628 38.1875 23.5V52.8016L37.2093 53.6769C34.9919 55.6599 33.4289 58.2694 32.7271 61.1601C32.0253 64.0508 32.2178 67.0865 33.2791 69.8654C34.3404 72.6444 36.2205 75.0355 38.6706 76.7225C41.1207 78.4095 44.0253 79.3127 47 79.3127C49.9747 79.3127 52.8793 78.4095 55.3294 76.7225C57.7795 75.0355 59.6596 72.6444 60.7209 69.8654C61.7822 67.0865 61.9747 64.0508 61.2729 61.1601C60.5711 58.2694 59.0081 55.6599 56.7907 53.6769L55.8125 52.8016V23.5C55.8125 21.1628 54.884 18.9213 53.2314 17.2686C51.5787 15.616 49.3372 14.6875 47 14.6875ZM32.3125 23.5C32.3125 19.6046 33.8599 15.8688 36.6144 13.1144C39.3688 10.3599 43.1046 8.8125 47 8.8125C50.8954 8.8125 54.6312 10.3599 57.3856 13.1144C60.1401 15.8688 61.6875 19.6046 61.6875 23.5V50.2342C64.5212 53.1263 66.438 56.7907 67.1975 60.7679C67.957 64.745 67.5254 68.8579 65.9569 72.5907C64.3883 76.3235 61.7526 79.5102 58.3803 81.7511C55.0079 83.992 51.049 85.1874 47 85.1874C42.951 85.1874 38.9921 83.992 35.6197 81.7511C32.2474 79.5102 29.6117 76.3235 28.0431 72.5907C26.4746 68.8579 26.043 64.745 26.8025 60.7679C27.562 56.7907 29.4788 53.1263 32.3125 50.2342V23.5ZM44.0625 35.25C44.0625 34.4709 44.372 33.7238 44.9229 33.1729C45.4738 32.622 46.2209 32.3125 47 32.3125C47.7791 32.3125 48.5262 32.622 49.0771 33.1729C49.628 33.7238 49.9375 34.4709 49.9375 35.25V56.3119C51.8983 57.0048 53.5509 58.3687 54.6033 60.1624C55.6557 61.956 56.0401 64.064 55.6886 66.1137C55.337 68.1634 54.2722 70.0228 52.6822 71.3632C51.0923 72.7037 49.0796 73.4389 47 73.4389C44.9204 73.4389 42.9077 72.7037 41.3178 71.3632C39.7278 70.0228 38.663 68.1634 38.3114 66.1137C37.9599 64.064 38.3443 61.956 39.3967 60.1624C40.4491 58.3687 42.1017 57.0048 44.0625 56.3119V35.25Z" fill="#F01055"/>
</g>
</svg>
